<?xml version="1.0" encoding="UTF-8" standalone="no"?>
<!-- Created with Inkscape (http://www.inkscape.org/) -->

<svg
   xmlns:dc="http://purl.org/dc/elements/1.1/"
   xmlns:cc="http://creativecommons.org/ns#"
   xmlns:rdf="http://www.w3.org/1999/02/22-rdf-syntax-ns#"
   xmlns:svg="http://www.w3.org/2000/svg"
   xmlns="http://www.w3.org/2000/svg"
   xmlns:xlink="http://www.w3.org/1999/xlink"
   xmlns:sodipodi="http://sodipodi.sourceforge.net/DTD/sodipodi-0.dtd"
   xmlns:inkscape="http://www.inkscape.org/namespaces/inkscape"
   width="320"
   height="192"
   viewBox="0 0 320 192"
   id="svg2"
   version="1.1"
   inkscape:version="0.91 r13725"
   sodipodi:docname="crew-compartment.svg"
   inkscape:export-filename="/home/zlsa/projects/books/nonfiction/ovoh/illustrations/crew-compartment/pressure-vessel.png"
   inkscape:export-xdpi="360"
   inkscape:export-ydpi="360">
  <defs
     id="defs4">
    <linearGradient
       id="linearGradient5977"
       inkscape:collect="always">
      <stop
         id="stop5979"
         offset="0"
         style="stop-color:#ff8800;stop-opacity:1;" />
      <stop
         id="stop5981"
         offset="1"
         style="stop-color:#ff8800;stop-opacity:0;" />
    </linearGradient>
    <linearGradient
       gradientTransform="matrix(-1,0,0,1,255,0)"
       y2="965.36218"
       x2="104"
       y1="929.36218"
       x1="112"
       gradientUnits="userSpaceOnUse"
       id="linearGradient5861"
       xlink:href="#linearGradient5977"
       inkscape:collect="always" />
    <linearGradient
       y2="965.36218"
       x2="104"
       y1="929.36218"
       x1="112"
       gradientTransform="matrix(-1,0,0,1,256,0)"
       gradientUnits="userSpaceOnUse"
       id="linearGradient5907"
       xlink:href="#linearGradient5977"
       inkscape:collect="always" />
  </defs>
  <sodipodi:namedview
     id="base"
     pagecolor="#9d9d9d"
     bordercolor="#666666"
     borderopacity="1.0"
     inkscape:pageopacity="1"
     inkscape:pageshadow="2"
     inkscape:zoom="1"
     inkscape:cx="244.9909415602414"
     inkscape:cy="90.55503284145271"
     inkscape:document-units="px"
     inkscape:current-layer="layer3"
     showgrid="false"
     units="px"
     inkscape:object-nodes="true"
     inkscape:snap-smooth-nodes="true"
     inkscape:snap-text-baseline="true"
     inkscape:snap-center="true"
     showguides="false"
     inkscape:guide-bbox="true"
     inkscape:window-width="1600"
     inkscape:window-height="862"
     inkscape:window-x="0"
     inkscape:window-y="18"
     inkscape:window-maximized="0">
    <inkscape:grid
       type="xygrid"
       id="grid4136"
       empspacing="4" />
    <sodipodi:guide
       position="304,64"
       orientation="0,1"
       id="guide4170" />
    <sodipodi:guide
       position="128,136"
       orientation="1,0"
       id="guide4172" />
    <sodipodi:guide
       position="192,-32"
       orientation="1,0"
       id="guide4235" />
    <sodipodi:guide
       position="256,96"
       orientation="1,0"
       id="guide4496" />
    <sodipodi:guide
       position="64,-32"
       orientation="1,0"
       id="guide3569" />
  </sodipodi:namedview>
  <metadata
     id="metadata7">
    <rdf:RDF>
      <cc:Work
         rdf:about="">
        <dc:format>image/svg+xml</dc:format>
        <dc:type
           rdf:resource="http://purl.org/dc/dcmitype/StillImage" />
        <dc:title />
      </cc:Work>
    </rdf:RDF>
  </metadata>
  <g
     inkscape:groupmode="layer"
     id="layer3"
     inkscape:label="background"
     transform="translate(0,64)">
    <rect
       style="opacity:1;fill:#ffffff;fill-opacity:1;stroke:none;stroke-width:2;stroke-linecap:square;stroke-linejoin:round;stroke-miterlimit:4;stroke-dasharray:none;stroke-opacity:1"
       id="rect4208"
       width="320"
       height="192"
       x="0"
       y="-64" />
    <path
       style="fill:#f5f5f5;fill-opacity:1;fill-rule:evenodd;stroke:#c0c0c0;stroke-width:1;stroke-linecap:butt;stroke-linejoin:miter;stroke-miterlimit:4;stroke-dasharray:3, 3;stroke-dashoffset:0;stroke-opacity:1"
       d="M 199.705078125,108.294921875 196,112 l 0,2 4,0 0,30 9.283203125,0 c -1.2012832694237,1.4906346425392 -2.6155688269249,3.6718954984761 -3.92578125,6.89453125 L 216.94921875,154 c 0.6819671627872,-4.9305129407674 0.1341342201079,-8.2064823492856 -0.384765625,-10 l 19.587890625,0 c -0.8173706313442,1.7585459673249 -1.6938954129149,4.3324513541504 -2.15234375,8 0,1.000001 3,2 6,2 3,0 6,-1 6,-2 -0.4584391682101,-3.6675491042933 -1.3349735313477,-6.2414536705828 -2.15234375,-8 l 19.587890625,0 c -0.5188998451079,1.7935176507144 -1.0667327877873,5.0694870592326 -0.384765625,10 l 11.591796875,-3.10546875 C 273.3323657019249,147.6718954984761 271.9180801444237,145.4906346425392 270.716796875,144 L 280,144 l 0,-30 4,0 0,-2 -3.705078125,-3.705078125"
       transform="translate(0,-64)"
       id="path4444"
       inkscape:connector-curvature="0"
       sodipodi:nodetypes="cccccccccccsccccccccccc" />
    <path
       style="fill:none;fill-rule:evenodd;stroke:#000000;stroke-width:2;stroke-linecap:butt;stroke-linejoin:miter;stroke-miterlimit:4;stroke-dasharray:none;stroke-opacity:0.25098039"
       d="m 160,-56 0,176"
       id="path4241"
       inkscape:connector-curvature="0"
       sodipodi:nodetypes="cc" />
    <path
       style="fill:#f5f5f5;fill-opacity:1;fill-rule:evenodd;stroke:#c0c0c0;stroke-width:1;stroke-linecap:butt;stroke-linejoin:miter;stroke-miterlimit:4;stroke-dasharray:3, 3;stroke-dashoffset:0;stroke-opacity:1"
       d="m 54,102.392578125 0,5.7109375 L 48,120 l 0,38 64,0 0,-38 -6,-12 0,-5.607421875"
       transform="translate(0,-64)"
       id="path4442"
       inkscape:connector-curvature="0"
       sodipodi:nodetypes="cccccccc" />
    <path
       sodipodi:nodetypes="scsss"
       inkscape:connector-curvature="0"
       id="path5294-2"
       d="m 52,36.00004000000001 c 0,8 56,8 56,0 0,0 0,-24 -12,-48 -8,-16 -24,-16 -32,0 -12,24.00000000000001 -12,48 -12,48 z"
       style="fill:#f5f5f5;fill-opacity:1;fill-rule:evenodd;stroke:#c0c0c0;stroke-width:1;stroke-linecap:butt;stroke-linejoin:miter;stroke-miterlimit:4;stroke-dasharray:3, 3;stroke-dashoffset:0;stroke-opacity:1" />
    <path
       style="fill:#648ddd;fill-opacity:1;fill-rule:evenodd;stroke:none;stroke-width:1px;stroke-linecap:butt;stroke-linejoin:miter;stroke-opacity:1"
       d="M 72 52 L 72 56 L 65 56 L 56 86 L 68 94 L 68 100 L 80 100 L 92 100 L 92 94 L 104 86 L 95 56 L 88 56 L 88 52 L 80 52 L 72 52 z "
       transform="translate(0,-64)"
       id="path4454" />
    <path
       style="fill:#f5f5f5;fill-opacity:1;fill-rule:evenodd;stroke:#c0c0c0;stroke-width:1;stroke-linecap:butt;stroke-linejoin:miter;stroke-miterlimit:4;stroke-dasharray:3, 3;stroke-dashoffset:0;stroke-opacity:1"
       d="m 228,0 -28,40 c -5.6,8 16,12 40,12 24,0 45.6,-3.99999999999996 40,-12 L 252,0 240,0 Z"
       id="path5262"
       inkscape:connector-curvature="0"
       sodipodi:nodetypes="cscsccc" />
    <path
       style="fill:#648ddd;fill-opacity:1;fill-rule:evenodd;stroke:none;stroke-width:1px;stroke-linecap:butt;stroke-linejoin:miter;stroke-opacity:1"
       d="M 232 68 L 232 78 L 223 78 L 212 94 L 212 111 C 212 111 222 114 240 114 C 258 114 268 111 268 111 L 268 94 L 257 78 L 248 78 L 248 68 L 240 68 L 232 68 z "
       transform="translate(0,-64)"
       id="path5348" />
  </g>
  <g
     inkscape:label="orbit"
     inkscape:groupmode="layer"
     id="layer1"
     transform="translate(0,-860.36216)" />
  <g
     inkscape:groupmode="layer"
     id="layer2"
     inkscape:label="bodies"
     transform="translate(0,64)" />
</svg>
